<svg version="1.1" xmlns="http://www.w3.org/2000/svg" xmlns:xlink="http://www.w3.org/1999/xlink" x="0px" y="0px"
	 viewBox="0 0 64 64" style="enable-background:new 0 0 64 64;" xml:space="preserve">
<path d="M55.8,24.9c0,2.9-2.3,5.2-5.2,5.2s-5.2-2.3-5.2-5.2c0-2.8,2.3-5.2,5.2-5.2C53.5,19.7,55.8,22,55.8,24.9
	L55.8,24.9z M53.7,33.6l-6.3,5.3c0.1,0.4,0.1,0.9,0.1,1.3c0,4.6-3.7,8.2-8.3,8.2c-3.9,0-7.2-2.7-8.1-6.4l-15.5-5.2
	c-1.2,0.9-2.7,1.5-4.4,1.5C7.3,38.3,4,35,4,31s3.3-7.3,7.3-7.3c3.5,0,6.4,2.4,7.1,5.6l15,5.1c1.5-1.5,3.5-2.4,5.7-2.4l2.2-6.8
	c0-0.1,0-0.3,0-0.4c0-5.1,4.2-9.3,9.3-9.3c5.2,0,9.3,4.2,9.3,9.3C60,28.9,57.4,32.3,53.7,33.6L53.7,33.6z M15.9,28.5
	c-0.9-1.6-2.5-2.6-4.5-2.6c-2.8,0-5.1,2.3-5.1,5.1s2.3,5.1,5.1,5.1c0.5,0,1-0.1,1.5-0.2l-2.4-0.8c-2-1-2.7-3.5-1.6-5.4
	c1-1.9,3.5-2.7,5.4-1.6L15.9,28.5z M43.4,24.8c0,4,3.2,7.2,7.2,7.2s7.3-3.2,7.3-7.2s-3.2-7.2-7.3-7.2
	C46.6,17.6,43.4,20.9,43.4,24.8L43.4,24.8z M43.5,40.9c0-3-2.5-5.5-5.5-5.5c-0.4,0-0.8,0.1-1.2,0.1l3.1,1c2,1,2.7,3.5,1.6,5.4
	c-1,2-3.5,2.7-5.4,1.6l-3.3-1.1c0.7,2.2,2.8,3.9,5.3,3.9C41,46.4,43.5,44,43.5,40.9L43.5,40.9z"/>
</svg>
